<?xml version="1.0" encoding="utf-8"?>
<!-- Generator: Adobe Illustrator 19.1.0, SVG Export Plug-In . SVG Version: 6.00 Build 0)  -->
<svg version="1.1" id="Layer_1" xmlns="http://www.w3.org/2000/svg" xmlns:xlink="http://www.w3.org/1999/xlink" x="0px" y="0px"
	 viewBox="0 0 123.5 35.7" style="enable-background:new 0 0 123.5 35.7;" xml:space="preserve">
<style type="text/css">
	.st0{clip-path:url(#SVGID_2_);fill:#F04F23;}
	.st1{fill:#1773C6;}
</style>
<g>
	<g>
		<defs>
			<path id="SVGID_1_" d="M24.5,22.3v6.4l-1-0.4l-7.3-2.8l8.3-15.6l8.3,15.6L24.5,22.3z M37.5,21.3L37.5,21.3L29.7,7.1h0
				c-1-1.8-3-3.1-5.2-3.1c-2.2,0-4.2,1.2-5.2,3.1l-7.8,14.2l0,0c-0.6,1-0.9,2.2-0.9,3.4c0,3.8,3.1,6.9,7,6.9c1.4,0,2.8-0.4,3.9-1.2
				l1.7-1h0c0,0,0,0,0.1,0h0l0,0c0.4-0.2,0.8-0.3,1.3-0.3c0.4,0,0.8,0.1,1.2,0.3c0.1,0,0.1,0.1,0.1,0.1h0l1.9,1.1h0c0,0,0,0,0,0
				c1.1,0.7,2.4,1.1,3.7,1.1c3.8,0,7-3.1,7-6.9C38.4,23.5,38.1,22.3,37.5,21.3z"/>
		</defs>
		<clipPath id="SVGID_2_">
			<use xlink:href="#SVGID_1_"  style="overflow:visible;"/>
		</clipPath>
		<rect x="5.6" y="-1" class="st0" width="37.9" height="37.6"/>
	</g>
	<g>
		<path class="st1" d="M51,12.3L55.9,25h-2.7l-1.1-3.1h-4.8L46.2,25h-2.7l4.9-12.8H51z M48.1,19.7h3.1l-1.6-4.2L48.1,19.7z"/>
		<path class="st1" d="M60.1,20.3V25h-2.6V12.3h5.3c2.7,0,4.5,1.4,4.5,4.1c0,2-1.1,3.3-2.9,3.8l3.4,5h-3l-3.2-4.8H60.1z M60.1,18.1
			h2.5c1.3,0,2-0.7,2-1.8c0-1.1-0.7-1.8-2-1.8h-2.5V18.1z"/>
		<path class="st1" d="M75.8,12.3L80.7,25H78l-1.1-3.1h-4.8L70.9,25h-2.7l4.9-12.8H75.8z M72.9,19.7H76l-1.6-4.2L72.9,19.7z"/>
		<path class="st1" d="M91.8,21.4c0,2.4-1.6,3.6-4.3,3.6h-5.3V12.3h4.9c2.7,0,4.3,1.2,4.3,3.5c0,1.4-0.7,2.4-1.7,2.7
			C90.9,18.8,91.8,20,91.8,21.4z M86.9,17.5c1.3,0,1.9-0.5,1.9-1.5c0-1-0.7-1.5-1.9-1.5h-2.2v3H86.9z M84.8,22.8h2.5
			c1.2,0,1.9-0.6,1.9-1.6c0-1-0.7-1.6-1.9-1.6h-2.5V22.8z"/>
		<path class="st1" d="M93.7,12.3h2.7v10.4h5.9V25h-8.6V12.3z"/>
		<path class="st1" d="M112.9,12.3v2.3h-6.1v2.8h5.5v2.3h-5.5v3h6.1V25h-8.7V12.3H112.9z"/>
	</g>
</g>
</svg>
